# xmcd
#
# Track frame offsets: 
#        150
#        12803
#        23903
#        38858
#        57021
#        72265
#        94082
#        105861
#        121795
#        137819
#        151782
#        165887
#
# Disc length: 2274 seconds
#
# Revision: 3
# Processed by: cddbd v1.5.1PL0 Copyright (c) Steve Scherf et al.
# Submitted via: ExactAudioCopy v0.95a5
#
DISCID=8208e00c
DTITLE=Carla Bruni - Quelqu'un m'a dit
DYEAR=1900
DGENRE=Chanson
TTITLE0=Quelqu'un m'a dit
TTITLE1=Raphaël
TTITLE2=Tout le monde
TTITLE3=La noyée
TTITLE4=Le toi du moi
TTITLE5=Le ciel dans une chambre
TTITLE6=J'en connais
TTITLE7=Le plus beau du quartier
TTITLE8=Chanson triste
TTITLE9=L'excessive
TTITLE10=L'amour
TTITLE11=La dernière minute
EXTD=
EXTT0=
EXTT1=
EXTT2=
EXTT3=
EXTT4=
EXTT5=
EXTT6=
EXTT7=
EXTT8=
EXTT9=
EXTT10=
EXTT11=
PLAYORDER=
